/* XPM */
static char *pikdev[] = {
/* columns rows colors chars-per-pixel */
"32 32 69 1",
"  c black",
". c #010101",
"X c #020202",
"o c #040404",
"O c gray2",
"+ c #060606",
"@ c gray3",
"# c #090909",
"$ c gray4",
"% c #0C0C0C",
"& c gray5",
"* c gray6",
"= c #101010",
"- c #111111",
"; c gray8",
": c #151515",
"> c gray9",
", c #181818",
"< c gray10",
"1 c #1B1B1B",
"2 c gray11",
"3 c #1E1E1E",
"4 c gray12",
"5 c #202020",
"6 c #222222",
"7 c #232323",
"8 c #252525",
"9 c gray15",
"0 c #272727",
"q c gray16",
"w c #2A2A2A",
"e c gray17",
"r c #2D2D2D",
"t c gray18",
"y c #2F2F2F",
"u c gray19",
"i c #585858",
"p c yellow",
"a c #808080",
"s c gray55",
"d c #8D8D8D",
"f c #8E8E8E",
"g c gray57",
"h c #939393",
"j c gray59",
"k c #979797",
"l c #9A9A9A",
"z c gray61",
"x c #A0A0A0",
"c c #A0A0A4",
"v c #A4A4A4",
"b c #A9A9A9",
"n c gray68",
"m c gray69",
"M c #B1B1B1",
"N c #B4B4B4",
"B c #B6B6B6",
"V c #B9B9B9",
"C c gray73",
"Z c gray74",
"A c gray75",
"S c #C0C0C0",
"D c #C1C1C3",
"F c #D2D2D2",
"G c #DADADA",
"H c gainsboro",
"J c #E1E1E1",
"K c gray100",
"L c None",
/* pixels */
"LLLLLLLLLLLLLLLLLLLLLLLLLLLLLLLL",
"LLLLLLLLLLLLLLLLLLLLLLLLLLLLLLLL",
"LLLLLiLLLLLLLLLLuuLLLLLLLLLLLLLL",
"LLLLipiLLLLLLLLucGiuZyyLLLLLLLLL",
"LLLipppiLLLLLLuaGKyZyyi LLLLLLLL",
"LLipppppiLLLLLuGKuZyyi aiLLLLLLL",
"LLLipppppiLLuuiuuZyyi iuuaLLLLLL",
"LLLLipppppiucGiuVeyyycyuSyuLLLLL",
"LLLLLipppppiGKyB9eeeyycSyyyyLLLL",
"LLLLLLipppppiym59 9eeeeyyyuZ LLL",
"LLLLLLLipppppi45 p9990eeyyZ  LLL",
"LLLLLLLuippppp4 pp55999eeV    LL",
"LLLLLLuaHipppppppp45559eB   K LL",
"LLLLLLuGKuippppppp<4445m   KKiLL",
"LLLLuuiuul**pppppp<<44n   KKKJiL",
"LLLucGKuj$* pppppp><<b     FJiiL",
"LLuaHKuh+$ ppppppp;>v   K LuiiLL",
"LLuGKud o pppppppp-z   KKiLcuaLL",
"LLiuud    +++@$$%%z   KKKFiLuLLL",
"LLuL  d      ++$$l     FFiiLuLLL",
"LLuL   d      ++h   K LuiicLLLLL",
"LLLL    d      d   KKiLcuaLLLLLL",
"LLLLL    d    d   GGmdiLuLLLLLLL",
"LLLLL     d  d     mdiiLuLLLLLLL",
"LLLLLL     dd   K LuiicLLLLLLLLL",
"LLLLLLL    ui  KGiLcuaLLLLLLLLLL",
"LLLLLLLL    i KGmdiLuLLLLLLLLLLL",
"LLLLLLLLL   i  mdiiLuLLLLLLLLLLL",
"LLLLLLLLLL i uL iicLLLLLLLLLLLLL",
"LLLLLLLLLLLLLLLc aLLLLLLLLLLLLLL",
"LLLLLLLLLLLLLLLL LLLLLLLLLLLLLLL",
"LLLLLLLLLLLLLLLL LLLLLLLLLLLLLLL"
};
